<?xml version="1.0" encoding="utf-8"?>
<!-- Generator: Adobe Illustrator 22.0.1, SVG Export Plug-In . SVG Version: 6.00 Build 0)  -->
<svg version="1.1" id="Layer_1" xmlns="http://www.w3.org/2000/svg" xmlns:xlink="http://www.w3.org/1999/xlink" x="0px" y="0px"
	 viewBox="0 0 2500 2441" style="enable-background:new 0 0 2500 2441;" xml:space="preserve">
<style type="text/css">
	.st0{opacity:0;fill:none;}
	.st1{fill:#FFFFFF;}
</style>
<path class="st0" d="M0.2,0h2499.6v2441H0.2V0z"/>
<path class="st1" d="M1829.6,569H670.4c-39.7,0-71.9,32.2-71.9,71.9v1159.2c0,39.7,32.2,71.9,71.9,71.9h624v-504.6h-169.8v-196.6
	h169.8v-145c0-168.3,102.8-259.9,252.9-259.9c71.9,0,133.7,5.4,151.7,7.7v175.9l-104.1,0c-81.7,0-97.5,38.8-97.5,95.7v125.6h194.7
	l-25.4,196.6h-169.4V1872h332c39.7,0,71.9-32.2,71.9-71.9V640.9C1901.5,601.2,1869.3,569,1829.6,569L1829.6,569z"/>
</svg>
